PathFileType	4	(X/Y/Z)	OpenSim_Sub01_CSStiffKnee_Accel.trc
DataRate	CameraRate	NumFrames	NumMarkers	Units	OrigDataRate	OrigDataStartFrame	OrigNumFrames
100	100	34	8	m	100	2691	5381
Frame#	Time	torso_imu_offset_imu	pelvis_imu_offset_imu	tibia_r_imu_offset_imu	femur_r_imu_offset_imu	tibia_l_imu_offset_imu	femur_l_imu_offset_imu	toes_r_imu_offset_imu	toes_l_imu_offset_imu
				X1	Y1	Z1	X2	Y2	Z2	X3	Y3	Z3	X4	Y4	Z4	X5	Y5	Z5	X6	Y6	Z6	X7	Y7	Z7	X8		Y8	Z8	

2691	26.90000000	8.75807497	-1.69068565	5.57973653	8.24122487	1.85989897	4.50648348	10.76761025	2.24259873	0.38605100	10.64547731	0.21837948	-0.36599808	10.87710036	-1.87929768	2.01783825	9.78662777	-0.55462751	-0.58515927	5.36606357	-1.34763318	8.52579189	6.04303975	0.73208166	11.08976069
2692	26.91000000	8.93579340	-1.56896097	5.59913460	8.46806135	2.39724138	4.28031440	10.64162051	2.18432608	0.32068579	10.44469138	-0.05234475	-0.48295582	10.37098469	-3.03254767	1.87993468	9.90216092	-0.56557319	-0.63530959	5.51814484	-1.31694485	8.44855748	6.35907961	0.32360398	11.70951692
2693	26.92000000	8.99503406	-1.44104399	5.63868938	8.56676830	2.86330163	4.09676778	10.49382830	1.90214887	0.20355938	10.14767153	-0.06546957	-0.40457211	9.69295262	-4.29950213	1.94818706	9.78670647	-0.68716525	-0.58988183	5.61507656	-1.39170233	8.36427434	7.08420476	0.01130620	12.68607984
2694	26.93000000	8.98502331	-1.32974142	5.67350628	8.57236096	3.15917661	3.93511525	10.29405728	1.44014744	0.00258159	9.82795448	0.06525335	-0.22402670	9.10391500	-5.24303935	2.10622218	9.47982595	-0.82241499	-0.54848773	5.70013499	-1.55031259	8.27859010	7.81194440	-0.18837836	13.47412835
2695	26.94000000	8.96237467	-1.25471362	5.68064811	8.53393006	3.19687988	3.76985515	10.00882994	0.87545890	-0.31244969	9.55081310	0.21921082	-0.05339876	8.86631888	-5.44038740	2.20783841	9.05613224	-0.86424247	-0.60965660	5.81911989	-1.76402756	8.19438406	8.12410327	-0.25874280	13.52662141
2696	26.95000000	8.93617706	-1.20887491	5.66620499	8.49314546	3.01665929	3.59470625	9.69728587	0.41830759	-0.64723038	9.33475001	0.38889115	0.05590518	8.94861060	-5.02312458	2.19917425	8.67250521	-0.78302631	-0.72567433	5.93215499	-1.99312825	8.11599034	8.08869253	-0.20230955	12.94382968
2697	26.96000000	8.88753667	-1.16943089	5.65338853	8.48721285	2.73429256	3.41474293	9.47289866	0.35642066	-0.83443927	9.17065813	0.63318476	0.08833563	9.14611687	-4.44917042	2.08092661	8.53376810	-0.59474328	-0.76280838	5.94915332	-2.19148252	8.04854157	8.05985046	-0.03297735	12.20708814
2698	26.97000000	8.80870220	-1.12822208	5.66497124	8.53500030	2.44077135	3.23870055	9.38515113	0.76410471	-0.79799568	9.04530943	0.94365084	0.04224180	9.32081379	-4.03319694	1.87202690	8.72034837	-0.29513954	-0.64077169	5.85008229	-2.32541081	7.98450818	8.24519108	0.22841815	11.62992385
2699	26.98000000	8.71759127	-1.11019650	5.72225217	8.61458843	2.16960490	3.08315565	9.33917873	1.23723285	-0.66750662	8.93707711	1.15969963	-0.05404941	9.48838272	-3.76084129	1.63051913	9.03373057	0.16649364	-0.40100897	5.77266738	-2.38920346	7.88808489	8.51714203	0.54589126	11.14044993
2700	26.99000000	8.63351139	-1.14083032	5.84169285	8.69902538	1.94334748	2.96560881	9.23194779	1.34597171	-0.59084242	8.82450922	1.11646763	-0.17041378	9.68011894	-3.57388939	1.41733151	9.25202008	0.83079115	-0.10232386	5.85551968	-2.38490566	7.72717758	8.70861310	0.88038072	10.62510307
2701	27	8.55426317	-1.20480577	5.99187240	8.76637963	1.75175304	2.90214690	9.07772224	1.06340572	-0.61710142	8.69969093	0.81750097	-0.30004640	9.87380629	-3.42103725	1.26853257	9.30160696	1.56949876	0.18731478	6.02602778	-2.35555057	7.54750225	8.71275308	1.18223676	10.07843528
2702	27.01000000	8.46500928	-1.26282121	6.11324679	8.79770734	1.56536276	2.90795020	8.95987574	0.60045587	-0.73696488	8.56288262	0.36577944	-0.44982486	10.01574516	-3.25523619	1.20534698	9.19655073	2.15515069	0.39463431	6.08746059	-2.36815577	7.44048321	8.45893690	1.39572267	9.55901746
2703	27.02000000	8.36134134	-1.29272041	6.17239572	8.77958917	1.38365143	2.98279014	8.94369980	0.20009923	-0.90921822	8.45452376	-0.11725029	-0.61097969	10.06994617	-3.06738604	1.21106235	8.99220118	2.44888138	0.46817788	5.94541160	-2.44842884	7.45670625	8.02293284	1.49888210	9.17642129
2704	27.03000000	8.26248520	-1.31129483	6.19499887	8.71084630	1.27120655	3.09208302	9.05214661	0.16997974	-1.02316342	8.50446849	-0.47180457	-0.73943401	10.04084405	-2.93293723	1.18474670	8.83350952	2.51237715	0.40531842	5.73736732	-2.52921211	7.55431718	7.80610728	1.54530733	9.15216869
2705	27.04000000	8.19103834	-1.33937407	6.21372346	8.59601823	1.29382633	3.19691196	9.29684321	0.78200153	-0.96932118	8.83618627	-0.54786313	-0.78913186	9.93887649	-2.92663805	1.03134880	8.85765483	2.43219651	0.21595634	5.62035717	-2.53673039	7.68041511	8.18961934	1.59109693	9.67310028
2706	27.05000000	8.17139209	-1.38507147	6.25081901	8.48157970	1.43885506	3.26161495	9.63164140	1.84877498	-0.74785199	9.38233497	-0.34974999	-0.74290544	9.77998719	-2.99788357	0.83417064	8.99641982	2.27152764	-0.02888752	5.62924353	-2.45861096	7.79718188	8.89120366	1.61269316	10.41164238
2707	27.06000000	8.22890078	-1.44897024	6.32232793	8.43859077	1.64741532	3.25258958	9.97633294	2.91249872	-0.42363875	9.96311375	0.02716882	-0.60071253	9.58350758	-3.02227360	0.78112644	9.06087042	2.07968265	-0.22231105	5.72679555	-2.31868136	7.87577315	9.23885986	1.53977551	10.73830089
2708	27.07000000	8.36873626	-1.52557466	6.43123240	8.50573496	1.87314839	3.16580131	10.25541147	3.62781180	-0.07104943	10.42056909	0.48908257	-0.38036122	9.39840376	-2.90761588	0.93290366	8.95718857	1.88696511	-0.29437577	5.87033572	-2.13615825	7.90353075	8.90529676	1.35021571	10.34960635
2709	27.08000000	8.55101015	-1.59604230	6.55155266	8.64874607	2.09896109	3.06313013	10.40484404	3.90803645	0.21625067	10.64873798	0.94827634	-0.13899448	9.33966680	-2.63571083	1.06329574	8.80726687	1.68166569	-0.25865373	6.00711278	-1.91892629	7.90365345	8.34360124	1.13076391	9.67824478
2710	27.09000000	8.73135826	-1.64187418	6.65625105	8.82620839	2.30967559	3.00727713	10.37119961	3.71917434	0.34897436	10.56579278	1.32230227	0.06534912	9.51186760	-2.21397119	0.93530344	8.74985908	1.45113640	-0.14200772	6.08830133	-1.67953817	7.90105352	8.06172937	0.97586562	9.21369601
2711	27.10000000	8.88215254	-1.66675988	6.74782388	9.02479766	2.46900732	2.97734756	10.19447106	3.20972729	0.30998735	10.26644713	1.57457288	0.22033008	9.81977552	-1.81086442	0.60125648	8.79647085	1.23172484	0.00814293	6.11967680	-1.49456686	7.88824577	8.04401221	0.90732339	9.00345613
2712	27.11000000	8.98565418	-1.68742429	6.84611956	9.24767776	2.52832336	2.90331084	9.96964524	2.63567709	0.12481899	9.94920005	1.69568148	0.34045618	10.05071422	-1.68903268	0.28379768	8.88363317	1.08854302	0.13234848	6.13913794	-1.47800551	7.83871783	7.96670517	0.90413532	8.83484360
2713	27.12000000	9.02759604	-1.70915146	6.95608879	9.48034761	2.46075932	2.75292930	9.76674946	2.21510786	-0.15983416	9.73661117	1.70321544	0.41668666	10.08090234	-1.93449763	0.12816225	8.96701741	1.05732553	0.19153704	6.16630171	-1.67047772	7.74384633	7.67910222	0.95555933	8.61244279
2714	27.13000000	9.00117209	-1.71132198	7.04894092	9.66841550	2.28837840	2.57970842	9.59853366	2.07844423	-0.45127613	9.57880601	1.67420910	0.38666347	9.98829394	-2.23647731	0.10195676	9.04716457	1.10742856	0.19245197	6.17906707	-1.94782088	7.63547179	7.42547713	1.07498025	8.50999294
2715	27.14000000	8.90084608	-1.67330142	7.09504933	9.75812385	2.04259629	2.44502855	9.47000182	2.32098308	-0.65794870	9.41040943	1.68106741	0.19041321	9.86993394	-2.26906072	0.14769871	9.12830973	1.20128812	0.14902412	6.15590372	-2.17165953	7.54677262	7.46121271	1.27141571	8.70535365
2716	27.15000000	8.72376833	-1.61048361	7.10328847	9.75798305	1.78303560	2.37179645	9.38619978	2.79782364	-0.76429378	9.24688852	1.66536402	-0.13294281	9.73815916	-2.10442707	0.19701687	9.19014827	1.32261971	0.08538744	6.13944729	-2.28707228	7.46821732	7.60464843	1.47509646	9.04295157
2717	27.16000000	8.46880566	-1.55944395	7.10519933	9.71318305	1.58578145	2.36015491	9.35218407	3.22281707	-0.79956617	9.15127731	1.49190093	-0.48582550	9.55544914	-2.04880473	0.17543275	9.19794544	1.46770748	0.03164673	6.20989006	-2.28852754	7.36521461	7.41765059	1.57011562	9.17151641
2718	27.17000000	8.16273318	-1.54151921	7.12263554	9.65767907	1.48938579	2.39582137	9.37004031	3.40458518	-0.78869850	9.16058668	1.11177749	-0.77049776	9.30822674	-2.24129836	0.07549020	9.12673646	1.63615236	0.00770914	6.38477294	-2.20427431	7.23185840	6.74685181	1.51255097	8.95147550
2719	27.18000000	7.89454729	-1.54343380	7.15518205	9.59930086	1.44817929	2.43298286	9.43522494	3.36728198	-0.74568717	9.25239107	0.67085956	-0.89055577	9.03777662	-2.44136505	0.03945396	8.97377218	1.83459348	0.01055601	6.54076180	-2.13651096	7.12696951	6.08167107	1.42042801	8.72125400
2720	27.19000000	7.75405783	-1.54892710	7.19910337	9.54055142	1.40936821	2.42637750	9.53982610	3.16421305	-0.68269528	9.39283470	0.33103359	-0.76572450	8.79424083	-2.38844671	0.20498168	8.74458056	2.06817948	0.03680118	6.55241030	-2.18339150	7.10952372	5.93714938	1.41628051	8.83253043
2721	27.20000000	7.75255828	-1.55927030	7.24749140	9.46543568	1.36425427	2.38047547	9.65041906	2.84856670	-0.60823592	9.51308444	0.14751636	-0.48037380	8.64256796	-2.14566801	0.45303091	8.49910755	2.31684082	0.11128876	6.46924818	-2.29802162	7.14968251	6.19496162	1.44296666	9.10611312
2722	27.21000000	7.85497940	-1.58604916	7.29156445	9.34714383	1.33011024	2.32900809	9.71861419	2.47340201	-0.52866656	9.52392926	0.11239820	-0.21569155	8.65613880	-1.96648904	0.51388981	8.32921899	2.54576214	0.27526855	6.44367551	-2.34825077	7.16540115	6.36451716	1.33791858	9.05111118
2723	27.22000000	8.01668891	-1.63498876	7.32211315	9.17952484	1.31546414	2.28951997	9.71413390	2.07903871	-0.44981531	9.39034885	0.17518896	-0.08763302	8.84422832	-1.97538106	0.27910855	8.28822435	2.74783737	0.51748705	6.55391602	-2.26749324	7.11411502	6.24433994	1.05864271	8.48755743
2724	27.23000000	8.17305389	-1.69843996	7.32902783	9.00283483	1.30858306	2.24259502	9.64754494	1.67737551	-0.37639143	9.19882459	0.19221048	-0.06380985	9.07283117	-2.00351774	0.00440115	8.34248309	2.97821244	0.70906882	6.70971952	-2.13791482	7.04285586	6.28878181	0.83360389	7.93822784
